<svg width="28" height="28" viewBox="0 0 28 28" fill="none" xmlns="http://www.w3.org/2000/svg">
<path d="M14 2.625C7.721 2.625 2.625 7.721 2.625 14C2.625 20.279 7.721 25.375 14 25.375C20.279 25.375 25.375 20.279 25.375 14C25.375 7.721 20.279 2.625 14 2.625ZM19.278 10.36C19.1074 12.1573 18.368 16.5253 17.9926 18.5386C17.8334 19.3918 17.5149 19.6761 17.2191 19.7103C16.5594 19.7671 16.0589 19.278 15.4219 18.8571C14.4209 18.1974 13.8521 17.7879 12.8853 17.1509C11.7591 16.4115 12.4871 16.002 13.1355 15.3423C13.3061 15.1716 16.2181 12.5212 16.275 12.2824C16.2829 12.2462 16.2818 12.2086 16.2719 12.173C16.262 12.1373 16.2436 12.1045 16.2181 12.0776C16.1499 12.0208 16.0589 12.0435 15.9792 12.0549C15.8769 12.0776 14.2844 13.1355 11.179 15.2285C10.724 15.5356 10.3145 15.6949 9.9505 15.6835C9.541 15.6721 8.7675 15.456 8.18738 15.2626C7.47075 15.0351 6.91337 14.91 6.95888 14.5119C6.98163 14.3071 7.266 14.1024 7.80063 13.8863C11.1221 12.4416 13.3289 11.4861 14.4323 11.0311C17.5945 9.71163 18.2429 9.48413 18.6751 9.48413C18.7661 9.48413 18.9823 9.50688 19.1188 9.62063C19.2325 9.71163 19.2666 9.83675 19.278 9.92775C19.2666 9.996 19.2894 10.2008 19.278 10.36Z" fill="#D17D2F"/>
</svg>
