<svg width="28" height="28" viewBox="0 0 28 28" fill="none" xmlns="http://www.w3.org/2000/svg">
<path d="M14 2.625C7.71768 2.625 2.625 7.71768 2.625 14C2.625 20.2823 7.71768 25.375 14 25.375C20.2823 25.375 25.375 20.2823 25.375 14C25.375 7.71768 20.2823 2.625 14 2.625ZM18.3746 15.4586C18.3746 15.4586 19.3806 16.4515 19.6283 16.9125C19.6354 16.922 19.6389 16.9314 19.6413 16.9362C19.742 17.1056 19.7657 17.2371 19.7159 17.3355C19.633 17.499 19.3486 17.5796 19.2515 17.5867H17.4741C17.3509 17.5867 17.0926 17.5547 16.7798 17.339C16.5392 17.1708 16.3023 16.8947 16.0712 16.6257C15.7264 16.2252 15.4278 15.8792 15.1268 15.8792C15.0886 15.8792 15.0506 15.8852 15.0143 15.897C14.7868 15.9705 14.4953 16.2951 14.4953 17.1601C14.4953 17.4303 14.282 17.5855 14.1315 17.5855H13.3175C13.0402 17.5855 11.5958 17.4883 10.3162 16.1387C8.74973 14.4858 7.3397 11.1705 7.32785 11.1397C7.23898 10.9252 7.42264 10.8103 7.62289 10.8103H9.41801C9.65736 10.8103 9.73556 10.956 9.79006 11.0852C9.85405 11.2356 10.0887 11.834 10.4737 12.507C11.0982 13.6042 11.4809 14.0498 11.7878 14.0498C11.8453 14.0491 11.9019 14.0344 11.9525 14.0071C12.353 13.7843 12.2783 12.3565 12.2606 12.0603C12.2606 12.0046 12.2594 11.4217 12.0544 11.142C11.9075 10.9394 11.6575 10.8624 11.5058 10.834C11.5672 10.7493 11.6481 10.6806 11.7416 10.6337C12.0165 10.4963 12.5118 10.4761 13.0035 10.4761H13.2772C13.8104 10.4832 13.9479 10.5176 14.141 10.5662C14.532 10.6598 14.5403 10.9122 14.5059 11.776C14.4953 12.0212 14.4846 12.2985 14.4846 12.6255C14.4846 12.6966 14.4811 12.7724 14.4811 12.853C14.4692 13.2926 14.455 13.7915 14.7654 13.9964C14.8059 14.0218 14.8527 14.0354 14.9005 14.0355C15.0083 14.0355 15.333 14.0355 16.2122 12.5272C16.4833 12.0417 16.719 11.5372 16.9172 11.0176C16.935 10.9868 16.9871 10.892 17.0487 10.8553C17.0942 10.8321 17.1446 10.8203 17.1957 10.8209H19.306C19.5358 10.8209 19.6934 10.8553 19.723 10.9442C19.7752 11.0852 19.7136 11.5153 18.7502 12.8198L18.3201 13.3874C17.4469 14.532 17.4469 14.5901 18.3746 15.4586Z" fill="#D17D2F"/>
</svg>
