<svg width="28" height="28" viewBox="0 0 28 28" fill="none" xmlns="http://www.w3.org/2000/svg">
<path d="M11.6667 17.4999L17.7217 13.9999L11.6667 10.4999V17.4999ZM25.1534 8.36492C25.305 8.91325 25.41 9.64825 25.48 10.5816C25.5617 11.5149 25.5967 12.3199 25.5967 13.0199L25.6667 13.9999C25.6667 16.5549 25.48 18.4333 25.1534 19.6349C24.8617 20.6849 24.185 21.3616 23.135 21.6533C22.5867 21.8049 21.5834 21.9099 20.0434 21.9799C18.5267 22.0616 17.1384 22.0966 15.855 22.0966L14 22.1666C9.11171 22.1666 6.06671 21.9799 4.86504 21.6533C3.81504 21.3616 3.13837 20.6849 2.84671 19.6349C2.69504 19.0866 2.59004 18.3516 2.52004 17.4183C2.43837 16.4849 2.40337 15.6799 2.40337 14.9799L2.33337 13.9999C2.33337 11.4449 2.52004 9.56659 2.84671 8.36492C3.13837 7.31492 3.81504 6.63825 4.86504 6.34659C5.41337 6.19492 6.41671 6.08992 7.95671 6.01992C9.47337 5.93825 10.8617 5.90325 12.145 5.90325L14 5.83325C18.8884 5.83325 21.9334 6.01992 23.135 6.34659C24.185 6.63825 24.8617 7.31492 25.1534 8.36492Z" fill="#D17D2F"/>
</svg>
